<svg xmlns="http://www.w3.org/2000/svg" viewBox="0 0 71 55" class="discord-icon" aria-hidden="true">
  <path fill="#ffffff" d="M60.104 4.552A58.326 58.326 0 0046.852.8a41.26 41.26 0 00-1.984 4.07
    55.042 55.042 0 00-16.736 0A41.71 41.71 0 0026.148.8
    58.458 58.458 0 0012.896 4.552C4.392 17.16 2.088 29.448
    3.24 41.576a59.8 59.8 0 0017.984 9.272 44.78 44.78 0 003.84-6.24
    28.48 28.48 0 01-5.952-2.88c.504-.36.984-.744 1.44-1.128
    11.424 5.328 23.808 5.328 35.088 0 .48.384.96.768 1.44 1.128
    a28.336 28.336 0 01-5.952 2.88 44.53 44.53 0 003.84 6.24
    59.704 59.704 0 0017.984-9.272c1.368-13.68-.984-25.944-9.248-37.024zM23.04 37.6
    c-3.456 0-6.24-3.168-6.24-7.056 0-3.888 2.784-7.056 6.24-7.056
    3.456 0 6.24 3.168 6.24 7.056 0 3.888-2.784 7.056-6.24 7.056zm24.96 0
    c-3.456 0-6.24-3.168-6.24-7.056 0-3.888 2.784-7.056 6.24-7.056
    3.456 0 6.24 3.168 6.24 7.056 0 3.888-2.784 7.056-6.24 7.056z"></path>
</svg>
